<?xml version="1.0" standalone="no"?>
<!DOCTYPE svg PUBLIC "-//W3C//DTD SVG 1.1//EN" "http://www.w3.org/Graphics/SVG/1.1/DTD/svg11.dtd" >
<svg xmlns="http://www.w3.org/2000/svg" xmlns:xlink="http://www.w3.org/1999/xlink" version="1.1">
<metadata>
Created by FontForge 20170731 at Mon Oct 31 16:24:32 2011
 By Aleksey,,,
Bij regeling van 16 juni 2008 (Stcrt. 2008, nr. 115) heeft de Staat der Nederlanden (Ministerie van Algemene Zaken) een auteursrechtelijk voorbehoud gemaakt, als bedoeld in artikel 15b van de Auteurswet 1912, met betrekking tot het gebruik en de toepassing van het ontwerp van het voor de Rijksoverheid algemeen geldende Rijkslogo en de huisstijl, waaronder begrepen het gebruik van de lettertypes RijksoverheidSerif en RijksoverheidSans.   Genoemd voorbehoud is niet van toepassing op partijen aan wie door of vanwege de Rijksoverheid het Rijkslogo en de huisstijl ter beschikking is gesteld met het oog op het gebruik bij de uitoefening van werkzaamheden of diensten in opdracht van de Rijksoverheid. Ieder gebruik in welke vorm of wijze, hetzij elektronisch, mechanisch, door fotokopiee:n, opnamen of enige andere manier is verboden tenzij er voorafgaand schriftelijke toestemming van de Rijksoverheid is verkregen. Voor toestemming kunt u zich wenden tot de Rijksvoorlichtingsdienst.   Auteur: Peter Verheul.
</metadata>
<defs>
<font id="RijksoverheidSansHeading-Bold" horiz-adv-x="1091" >
  <font-face 
    font-family="RijksoverheidSansHeading"
    font-weight="700"
    font-stretch="normal"
    units-per-em="2048"
    panose-1="2 11 8 3 4 2 2 6 2 3"
    ascent="1536"
    descent="-512"
    x-height="1055"
    cap-height="1397"
    bbox="-90 -532 2068 1892"
    underline-thickness="102"
    underline-position="-306"
    unicode-range="U+0020-FB04"
  />
<missing-glyph horiz-adv-x="348" 
 />
    <glyph glyph-name=".notdef" horiz-adv-x="348" 
 />
    <glyph glyph-name=".null" horiz-adv-x="0" 
 />
    <glyph glyph-name="nonmarkingreturn" horiz-adv-x="682" 
 />
    <glyph glyph-name="space" unicode=" " horiz-adv-x="348" 
 />
    <glyph glyph-name="exclam" unicode="!" horiz-adv-x="571" 
d="M123 160q0 76 43 125t119 49q80 0 122 -44t42 -130q0 -74 -42 -122t-120 -48t-121 43t-43 127zM162 428v958l270 23l-22 -649v-326z" />
    <glyph glyph-name="quotedbl" unicode="&#x22;" horiz-adv-x="667" 
d="M49 1470h236l-29 -462h-178zM383 1470h238l-31 -462h-176z" />
    <glyph glyph-name="numbersign" unicode="#" horiz-adv-x="1280" 
d="M25 356l18 172h262l43 342h-254l17 174h258l45 353h176l-45 -353h276l45 353h178l-45 -353h256l-18 -174h-260l-41 -342h250l-17 -172h-256l-43 -356h-176l43 356h-276l-43 -356h-176l41 356h-258zM481 528h277l43 342h-277z" />
    <glyph glyph-name="dollar" unicode="$" 
d="M90 10v221q180 -33 354 -32q141 0 221 53t80 131q0 72 -45 115t-165 86l-175 59q-254 86 -254 352q0 152 95.5 256.5t269.5 141.5v227h176v-207q156 0 295 -29l-18 -213q-145 29 -291 29q-139 0 -208 -48t-69 -128q0 -66 40 -108t136 -70l173 -55q154 -49 224 -135.5
t70 -223.5q0 -162 -102 -276.5t-281 -155.5v-223h-178v209h-2q-203 -1 -346 24z" />
    <glyph glyph-name="percent" unicode="%" horiz-adv-x="1724" 
d="M39 995q0 201 103.5 309.5t252.5 108.5q154 0 249 -98t95 -303q0 -195 -105.5 -300.5t-254.5 -105.5q-340 0 -340 389zM248 1014q0 -233 139 -234q145 0 145 215q0 246 -142 246t-142 -227zM498 6l567 1438l160 -64l-568 -1437zM987 373q0 203 102.5 310.5t253.5 107.5
q154 0 249.5 -98.5t95.5 -303.5q0 -193 -105.5 -298t-255.5 -105q-340 0 -340 387zM1194 391q0 -233 141 -233q145 0 146 215q0 248 -143.5 247.5t-143.5 -229.5z" />
    <glyph glyph-name="ampersand" unicode="&#x26;" horiz-adv-x="1466" 
d="M94 383q0 115 71 205t212 133v2q-229 70 -230 299q0 170 129.5 282.5t344.5 112.5q143 0 253 -35l-14 -206q-123 29 -235 28q-100 0 -158.5 -47t-58.5 -127q0 -199 309 -199h65v-208h-90q-158 0 -244 -63.5t-86 -162.5q0 -197 302 -196q186 0 300.5 134t114.5 367h-133
v195h496v-195h-125q0 -338 -186.5 -528t-499.5 -190q-276 0 -406.5 99t-130.5 300z" />
    <glyph glyph-name="quotesingle" unicode="'" horiz-adv-x="333" 
d="M49 1470h236l-29 -462h-178z" />
    <glyph glyph-name="parenleft" unicode="(" horiz-adv-x="567" 
d="M55 504q0 494 320 893h174q-301 -422 -301 -883q0 -215 81 -449.5t220 -435.5h-174q-320 406 -320 875z" />
    <glyph glyph-name="parenright" unicode=")" horiz-adv-x="567" 
d="M18 -371q303 422 304 885q0 217 -81 449.5t-223 433.5h177q319 -399 319 -873q0 -500 -319 -895h-177z" />
    <glyph glyph-name="asterisk" unicode="*" horiz-adv-x="1083" 
d="M86 1081l53 181l285 -115l45 -19v50l-23 305h191l-21 -305v-48l37 19l285 115l61 -183l-294 -71l-50 -15l31 -37l195 -231l-150 -113l-160 254l-30 39l-27 -39l-158 -252l-155 107l194 233l31 39l-47 13z" />
    <glyph glyph-name="plus" unicode="+" 
d="M125 535v194h321v322h195v-322h324v-194h-324v-324h-195v324h-321z" />
    <glyph glyph-name="comma" unicode="," horiz-adv-x="473" 
d="M37 -233l117 268q-80 37 -80 135q0 72 45 118t117 46q76 0 120.5 -43t44.5 -131q0 -59 -52 -156.5t-113.5 -167t-85.5 -69.5h-113z" />
    <glyph glyph-name="hyphen" unicode="-" horiz-adv-x="804" 
d="M127 500v223h551v-223h-551z" />
    <glyph glyph-name="period" unicode="." horiz-adv-x="473" 
d="M74 160q0 76 43 125t119 49q80 0 122.5 -44t42.5 -130q0 -74 -43 -122t-120 -48q-78 0 -121 43t-43 127z" />
    <glyph glyph-name="slash" unicode="/" horiz-adv-x="645" 
d="M-90 -342l647 1780l178 -68l-647 -1782z" />
    <glyph glyph-name="zero" unicode="0" 
d="M55 508q0 254 146.5 409.5t359.5 155.5q215 0 345 -137t130 -391t-146.5 -408.5t-357.5 -154.5q-221 0 -349 132t-128 394zM295 520q0 -336 252 -336q111 0 181.5 95.5t70.5 261.5q0 164 -67.5 245.5t-186.5 81.5q-111 0 -180.5 -94t-69.5 -254z" />
    <glyph glyph-name="one" unicode="1" horiz-adv-x="772" 
d="M41 809v188q193 57 379 58h133v-1055h-240v834q-139 0 -272 -25z" />
    <glyph glyph-name="two" unicode="2" horiz-adv-x="1046" 
d="M76 182q43 184 266 299l150 76q84 43 116.5 81t32.5 87q0 55 -53 87t-154 32q-150 0 -299 -41v217q174 47 332 47q207 0 314.5 -88t107.5 -244q0 -223 -268 -338l-138 -57q-106 -45 -166 -123v-4h633v-213h-837z" />
    <glyph glyph-name="three" unicode="3" horiz-adv-x="950" 
d="M47 -164h172q199 0 308.5 72t109.5 194q0 86 -63.5 149.5t-180.5 88.5q-117 -55 -237 -80l-43 189q373 98 522 395h-569v211h761l35 -195q-102 -242 -297 -371v-6q150 -33 235 -128t85 -238q0 -209 -182.5 -344t-479.5 -135h-176v198z" />
    <glyph glyph-name="four" unicode="4" 
d="M49 158q49 303 203 540.5t397 360.5h242v-860h162v-199h-162v-362h-236v362h-553zM262 199h395v637h-4q-328 -213 -391 -637z" />
    <glyph glyph-name="five" unicode="5" horiz-adv-x="1048" 
d="M111 -164h180q184 0 294.5 78t110.5 207q0 111 -79.5 171t-235.5 60q-111 0 -250 -16v719h752v-211h-551v-287q82 8 147 8q223 0 344 -112.5t121 -298.5q0 -229 -183 -372.5t-480 -143.5h-170v198z" />
    <glyph glyph-name="six" unicode="6" 
d="M76 565q0 414 212 627t568 213h121v-197h-123q-385 0 -506 -340l4 -4q106 59 258 60q193 0 304.5 -115t111.5 -322q0 -223 -138 -364t-343 -141q-213 0 -341 147t-128 436zM324 537q0 -182 69.5 -275.5t171.5 -93.5q90 0 152.5 71.5t62.5 209.5q0 131 -68.5 202.5
t-179.5 71.5q-119 0 -200 -27q-8 -61 -8 -159z" />
    <glyph glyph-name="seven" unicode="7" horiz-adv-x="974" 
d="M31 842v213h866l37 -203q-485 -516 -485 -1214h-230q0 672 443 1196v8h-631z" />
    <glyph glyph-name="eight" unicode="8" 
d="M70 326q0 109 64.5 198.5t207.5 173.5l-66 50q-82 63 -116.5 129.5t-34.5 162.5q0 143 129 260t303 117q197 0 308.5 -95t111.5 -243q0 -117 -56.5 -197.5t-185.5 -156.5l80 -47q119 -70 166 -142.5t47 -179.5q0 -164 -137 -269t-352 -105q-219 0 -344 95t-125 249z
M315 354q0 -86 65.5 -137t176.5 -51q98 0 161.5 47t63.5 117q0 55 -33.5 100t-119.5 98l-148 93q-92 -68 -129 -127.5t-37 -139.5zM362 1057q0 -61 22 -97t81 -75l129 -90q160 117 160 260q0 80 -53.5 128t-147.5 48q-84 0 -137.5 -49t-53.5 -125z" />
    <glyph glyph-name="nine" unicode="9" 
d="M72 567q0 223 136 364.5t341 141.5q215 0 341 -147.5t126 -436.5q0 -430 -211 -640.5t-567 -210.5h-121v198h125q186 0 317 89t191 259l-5 6q-111 -61 -258 -61q-186 0 -300.5 116.5t-114.5 321.5zM319 604q0 -135 62.5 -203.5t169.5 -68.5q129 0 209 28q8 61 8 158
q0 186 -65.5 277.5t-172.5 91.5q-98 0 -154.5 -72t-56.5 -211z" />
    <glyph glyph-name="colon" unicode=":" horiz-adv-x="473" 
d="M74 160q0 76 43 125t119 49q80 0 122.5 -44t42.5 -130q0 -74 -43 -122t-120 -48q-78 0 -121 43t-43 127zM74 842q0 76 43 125t119 49q80 0 122.5 -45t42.5 -129q0 -76 -43 -123t-120 -47q-78 0 -121 43t-43 127z" />
    <glyph glyph-name="semicolon" unicode=";" horiz-adv-x="473" 
d="M37 -233l117 268q-80 37 -80 135q0 72 45 118t117 46q76 0 120.5 -43t44.5 -131q0 -59 -52 -156.5t-113.5 -167t-85.5 -69.5h-113zM74 842q0 76 43 125t119 49q80 0 122.5 -45t42.5 -129q0 -76 -43 -123t-120 -47q-78 0 -121 43t-43 127z" />
    <glyph glyph-name="less" unicode="&#x3c;" 
d="M150 565v133l669 408l101 -176l-506 -295v-4l506 -299l-101 -174z" />
    <glyph glyph-name="equal" unicode="=" 
d="M125 342v195h840v-195h-840zM125 727v193h840v-193h-840z" />
    <glyph glyph-name="greater" unicode="&#x3e;" 
d="M172 332l508 297v4l-508 297l100 176l672 -408v-133l-672 -407z" />
    <glyph glyph-name="question" unicode="?" horiz-adv-x="890" 
d="M59 1128v215q170 70 359 70q180 0 289.5 -88t109.5 -231q0 -125 -51 -201t-174 -145l-107 -60q-90 -49 -90 -123q0 -61 37 -127l-199 -10q-68 68 -67 164q0 141 160 239l112 68q66 41 92.5 77t26.5 87q0 55 -51 90t-150 35q-143 -1 -297 -60zM174 160q0 76 43 125t119 49
q80 0 122 -44t42 -130q0 -74 -42 -122t-120 -48t-121 43t-43 127z" />
    <glyph glyph-name="at" unicode="@" horiz-adv-x="1972" 
d="M86 369q0 307 139.5 546.5t360.5 363.5t481 124q367 0 593 -211t226 -557q0 -299 -154.5 -476t-361.5 -177q-203 0 -250 174h-6q-127 -168 -340 -168q-129 0 -207 104.5t-78 331.5q0 283 161 463t362 180q92 0 153 -20l187 22v-758q0 -164 90 -164q113 0 203 129.5
t90 352.5q0 293 -185.5 464t-496.5 171q-160 0 -307.5 -64.5t-260 -176.5t-180 -278.5t-67.5 -361.5q0 -315 156.5 -483t393.5 -168q176 0 342 57v-129q-150 -70 -364 -70q-135 0 -255 45.5t-216 134.5t-152.5 242.5t-56.5 356.5zM737 455q0 -145 34 -200.5t97 -55.5
q131 0 244 112v543q-43 6 -113 6q-109 0 -185.5 -108.5t-76.5 -296.5z" />
    <glyph glyph-name="A" unicode="A" horiz-adv-x="1239" 
d="M12 0l416 1397h385l412 -1397h-291l-90 319h-477l-91 -319h-264zM418 524h370l-174 647h-16z" />
    <glyph glyph-name="B" unicode="B" horiz-adv-x="1210" 
d="M168 0v1397h385q260 0 387 -90t127 -246q0 -248 -201 -326v-4q258 -63 258 -311q0 -203 -134 -311.5t-396 -108.5h-426zM424 205h162q129 0 199.5 54t70.5 157q0 203 -328 202h-104v-413zM424 809h111q135 0 199.5 49t64.5 154q0 94 -60.5 137t-195.5 43h-119v-383z" />
    <glyph glyph-name="C" unicode="C" horiz-adv-x="1103" 
d="M90 657q0 246 98.5 419t256 255t358.5 82q137 0 274 -29l-18 -217q-123 20 -264 21q-188 0 -312.5 -130t-124.5 -374q0 -236 123 -359.5t305 -123.5q143 0 293 26v-209q-160 -33 -311 -32q-301 0 -489.5 172.5t-188.5 498.5z" />
    <glyph glyph-name="D" unicode="D" horiz-adv-x="1392" 
d="M168 0v1397h401q352 0 543 -170t191 -488q0 -371 -195 -555t-547 -184h-393zM424 211h147q219 0 341 126t122 390q0 223 -127 341t-356 118h-127v-975z" />
    <glyph glyph-name="E" unicode="E" horiz-adv-x="1015" 
d="M168 0v1397h733v-211h-477v-363h438v-209h-438v-403h483v-211h-739z" />
    <glyph glyph-name="F" unicode="F" horiz-adv-x="1001" 
d="M168 0v1397h733v-211h-477v-377h450v-211h-450v-598h-256z" />
    <glyph glyph-name="G" unicode="G" horiz-adv-x="1318" 
d="M90 657q0 371 210 563.5t546 192.5q174 0 315 -29l-20 -217q-143 20 -303 21q-217 0 -348.5 -130t-131.5 -374q0 -236 122 -361.5t313 -125.5q78 0 161 8v284h-215v209h463v-673q-203 -39 -420 -39q-317 0 -504.5 171.5t-187.5 499.5z" />
    <glyph glyph-name="H" unicode="H" horiz-adv-x="1411" 
d="M168 0v1397h256v-570h563v570h256v-1397h-256v602h-563v-602h-256z" />
    <glyph glyph-name="I" unicode="I" horiz-adv-x="591" 
d="M168 0v1397h256v-1397h-256z" />
    <glyph glyph-name="J" unicode="J" horiz-adv-x="708" 
d="M6 -4v219q63 -8 109 -8q84 0 130 54t46 159v977h258v-981q0 -428 -434 -428q-72 0 -109 8z" />
    <glyph glyph-name="K" unicode="K" horiz-adv-x="1280" 
d="M168 0v1397h256v-580h115l422 580h294l-491 -656l506 -741h-320l-405 608h-121v-608h-256z" />
    <glyph glyph-name="L" unicode="L" horiz-adv-x="931" 
d="M168 0v1397h256v-1186h483v-211h-739z" />
    <glyph glyph-name="M" unicode="M" horiz-adv-x="1775" 
d="M150 0l59 1397h407l277 -836h10l277 836h381l67 -1397h-258l-53 1135h-10l-283 -867h-285l-293 867h-8l-45 -1135h-243z" />
    <glyph glyph-name="N" unicode="N" horiz-adv-x="1392" 
d="M168 0v1397h401l410 -1129h10v1129h236v-1397h-402l-409 1128h-8v-1128h-238z" />
    <glyph glyph-name="O" unicode="O" horiz-adv-x="1486" 
d="M90 686q0 342 191.5 536.5t478.5 194.5q283 0 461 -180t178 -526q0 -342 -191.5 -535.5t-476.5 -193.5t-463 179t-178 525zM358 709q0 -254 107.5 -377t279.5 -123q160 0 272.5 118.5t112.5 360.5q0 258 -106 380t-279 122q-162 0 -274.5 -119.5t-112.5 -361.5z" />
    <glyph glyph-name="P" unicode="P" horiz-adv-x="1142" 
d="M168 0v1397h438q231 0 359.5 -116t128.5 -312q0 -221 -141.5 -350.5t-374.5 -129.5q-86 0 -154 9v-498h-256zM424 702q57 -8 121 -8q133 0 207.5 67.5t74.5 188.5q0 242 -258 242h-145v-490z" />
    <glyph glyph-name="Q" unicode="Q" horiz-adv-x="1486" 
d="M90 686q0 342 191.5 536.5t478.5 194.5q283 0 461 -180t178 -526q0 -254 -109.5 -429.5t-292.5 -248.5l334 -402h-303l-283 351h-14q-285 0 -463 179t-178 525zM358 709q0 -254 107.5 -377t279.5 -123q160 0 272.5 118.5t112.5 360.5q0 258 -106 380t-279 122
q-162 0 -274.5 -119.5t-112.5 -361.5z" />
    <glyph glyph-name="R" unicode="R" horiz-adv-x="1204" 
d="M168 0v1397h410q256 0 389 -105.5t133 -283.5q0 -141 -67.5 -246t-186.5 -158l371 -604h-299l-320 535h-174v-535h-256zM424 735h156q117 0 185.5 64.5t68.5 177.5q0 109 -67 162t-210 53h-133v-457z" />
    <glyph glyph-name="S" unicode="S" horiz-adv-x="1085" 
d="M90 10v221q180 -33 354 -32q141 0 221 53t80 131q0 72 -45 115t-165 86l-175 59q-254 86 -254 352q0 184 143.5 301t395.5 117q158 0 297 -29l-18 -213q-145 29 -291 29q-139 0 -208 -48t-69 -128q0 -66 40 -108t136 -70l173 -55q154 -49 224 -135.5t70 -223.5
q0 -201 -151.5 -323.5t-411.5 -122.5q-203 -1 -346 24z" />
    <glyph glyph-name="T" unicode="T" horiz-adv-x="1103" 
d="M37 1186v211h1032v-211h-387v-1186h-258v1186h-387z" />
    <glyph glyph-name="U" unicode="U" horiz-adv-x="1357" 
d="M154 483v914h256v-883q0 -303 278 -303q131 0 203 77t72 222v887h243v-895q0 -236 -144 -377t-388 -141q-520 -1 -520 499z" />
    <glyph glyph-name="V" unicode="V" horiz-adv-x="1226" 
d="M12 1397h287l322 -1143h10l319 1143h264l-413 -1397h-379z" />
    <glyph glyph-name="W" unicode="W" horiz-adv-x="1939" 
d="M12 1397h287l272 -1143h13l274 842l-94 301h272l344 -1143h11l274 1143h262l-368 -1397h-357l-229 770h-10l-232 -770h-354z" />
    <glyph glyph-name="X" unicode="X" horiz-adv-x="1204" 
d="M18 0l443 715l-410 682h299l258 -445h10l259 445h274l-408 -664l443 -733h-297l-295 498h-8l-291 -498h-277z" />
    <glyph glyph-name="Y" unicode="Y" horiz-adv-x="1140" 
d="M6 1397h289l293 -586h8l287 586h252l-435 -834v-563h-256v563z" />
    <glyph glyph-name="Z" unicode="Z" horiz-adv-x="1058" 
d="M51 0v207l658 969v8h-619v213h914v-207l-660 -969v-8h664v-213h-957z" />
    <glyph glyph-name="bracketleft" unicode="[" horiz-adv-x="544" 
d="M162 -377v1774h354v-150h-176v-1476h176v-148h-354z" />
    <glyph glyph-name="backslash" unicode="\" horiz-adv-x="645" 
d="M-90 1370l178 68l647 -1780l-178 -70z" />
    <glyph glyph-name="bracketright" unicode="]" horiz-adv-x="544" 
d="M31 -227h174v1476h-174v148h352v-1774h-352v150z" />
    <glyph glyph-name="asciicircum" unicode="^" 
d="M84 956l463 467l465 -467l-135 -135l-330 334l-330 -334z" />
    <glyph glyph-name="underscore" unicode="_" horiz-adv-x="1064" 
d="M0 -86h1065v-190h-1065v190z" />
    <glyph glyph-name="grave" unicode="`" horiz-adv-x="866" 
d="M172 1483h256l164 -309h-182z" />
    <glyph glyph-name="a" unicode="a" horiz-adv-x="1034" 
d="M57 281q0 152 121 240.5t359 88.5q29 0 75.5 -1t69.5 -1v62q0 178 -236 178q-145 0 -299 -64l-34 203q190 80 379 80q211 0 317 -96.5t106 -274.5v-696h-225v68q-127 -80 -299 -80q-160 0 -247 80t-87 213zM305 301q0 -55 41 -89t117 -34q115 0 219 55v199q-82 4 -139 4
q-238 0 -238 -135z" />
    <glyph glyph-name="b" unicode="b" horiz-adv-x="1150" 
d="M137 10v1467l240 12v-502q127 80 266 80q203 0 318.5 -130t115.5 -374q0 -272 -160.5 -423.5t-429.5 -151.5q-166 -1 -350 22zM377 205q61 -10 127 -10q154 0 240.5 85t86.5 263q0 152 -69.5 226.5t-192.5 74.5q-94 0 -192 -41v-598z" />
    <glyph glyph-name="c" unicode="c" horiz-adv-x="851" 
d="M74 512q0 254 150.5 405.5t367.5 151.5q121 0 221 -25l-20 -217q-98 18 -189 19q-127 0 -204.5 -86t-77.5 -238q0 -164 78.5 -243.5t207.5 -79.5q98 0 203 26v-209q-98 -29 -225 -28q-238 0 -375 131t-137 393z" />
    <glyph glyph-name="d" unicode="d" horiz-adv-x="1155" 
d="M74 502q0 262 153.5 413.5t399.5 151.5q90 0 153 -16v426l240 12v-1489h-234v72q-119 -84 -272 -84q-203 0 -321.5 133t-118.5 381zM322 516q0 -162 70.5 -239.5t193.5 -77.5q98 0 194 49v600q-78 12 -151 12q-141 0 -224 -91t-83 -253z" />
    <glyph glyph-name="e" unicode="e" horiz-adv-x="1036" 
d="M74 524q0 260 134 404.5t341 144.5q197 0 307.5 -112.5t110.5 -317.5q0 -109 -6 -178h-652q35 -272 324 -272q152 0 307 51v-201q-172 -55 -338 -55q-248 0 -388 134t-140 402zM313 641h420q0 109 -54 174.5t-147 65.5q-88 0 -146.5 -62.5t-72.5 -177.5z" />
    <glyph glyph-name="f" unicode="f" horiz-adv-x="671" 
d="M39 868v187h133v75q0 362 414 363q86 0 151 -16l-20 -189q-70 12 -127 12q-92 0 -134 -39.5t-42 -125.5v-80h258v-187h-258v-868h-242v868h-133z" />
    <glyph glyph-name="g" unicode="g" horiz-adv-x="1042" 
d="M33 -147q0 160 160 229v6q-84 41 -84 139q0 113 116 158v6q-152 84 -151 281q0 188 118.5 290.5t321.5 102.5q84 0 162 -21h340v-159h-162v-8q84 -63 84 -197q0 -172 -115.5 -263t-333.5 -91q-68 0 -131 16q-45 -23 -45 -66q0 -72 133 -71h252q322 0 322 -260
q0 -160 -137.5 -261.5t-411.5 -101.5q-219 0 -328.5 72t-109.5 199zM256 -100q0 -137 236 -138q313 0 313 140q0 96 -143 98l-349 10q-57 -38 -57 -110zM305 684q0 -195 199 -195q209 0 209 209q0 197 -203 197q-94 0 -149.5 -53.5t-55.5 -157.5z" />
    <glyph glyph-name="h" unicode="h" horiz-adv-x="1134" 
d="M137 0v1477l240 12v-502q137 80 272 80q174 0 270.5 -97.5t96.5 -275.5v-694h-240v645q0 199 -194 199q-106 0 -205 -41v-803h-240z" />
    <glyph glyph-name="i" unicode="i" horiz-adv-x="512" 
d="M115 1352q0 61 37.5 100t103.5 39q68 0 104.5 -38t36.5 -101q0 -57 -37.5 -96t-103.5 -39q-68 0 -104.5 37t-36.5 98zM137 0v1049l240 10v-1059h-240z" />
    <glyph glyph-name="j" unicode="j" horiz-adv-x="512" 
d="M-25 -223q162 41 162 219v1053l240 10v-1059q0 -190 -104.5 -290.5t-276.5 -125.5zM115 1352q0 61 37.5 100t103.5 39q68 0 104.5 -38t36.5 -101q0 -57 -37.5 -96t-103.5 -39q-68 0 -104.5 37t-36.5 98z" />
    <glyph glyph-name="k" unicode="k" horiz-adv-x="1058" 
d="M137 0v1477l240 12v-815h90l301 381h276l-364 -447l391 -608h-291l-299 485h-104v-485h-240z" />
    <glyph glyph-name="l" unicode="l" horiz-adv-x="512" 
d="M137 0v1477l240 12v-1489h-240z" />
    <glyph glyph-name="m" unicode="m" horiz-adv-x="1751" 
d="M137 0v1049l234 10v-78q143 86 276 86q190 0 289 -115q162 115 334 115q174 0 269 -97.5t95 -277.5v-692h-241v643q0 201 -191 201q-94 0 -196 -41v-803h-242v643q0 201 -191 201q-96 0 -196 -41v-803h-240z" />
    <glyph glyph-name="n" unicode="n" horiz-adv-x="1134" 
d="M137 0v1049l234 10v-78q137 86 278 86q174 0 270.5 -97.5t96.5 -275.5v-694h-240v645q0 199 -194 199q-106 0 -205 -41v-803h-240z" />
    <glyph glyph-name="o" unicode="o" horiz-adv-x="1165" 
d="M74 507q0 253 153.5 409.5t370.5 156.5q223 0 359.5 -136t136.5 -392q0 -254 -154 -408.5t-371 -154.5q-225 0 -360 136t-135 389zM322 516q0 -160 69.5 -240.5t192.5 -80.5q115 0 188.5 91t73.5 253q0 158 -70.5 239.5t-191.5 81.5q-115 0 -188.5 -91t-73.5 -253z" />
    <glyph glyph-name="p" unicode="p" horiz-adv-x="1150" 
d="M137 -408v1457l234 10v-78q125 86 272 86q203 0 318.5 -128t115.5 -376q0 -274 -155.5 -424.5t-413.5 -150.5q-68 0 -131 12v-408h-240zM377 205q66 -10 131 -10q150 0 236.5 87t86.5 261q0 152 -68.5 226.5t-191.5 74.5q-96 0 -194 -41v-598z" />
    <glyph glyph-name="q" unicode="q" horiz-adv-x="1155" 
d="M74 494q0 272 154.5 422.5t430.5 150.5q168 0 361 -23v-1452h-240v476q-127 -80 -270 -80q-197 0 -316.5 132t-119.5 374zM322 512q0 -158 71.5 -235.5t192.5 -77.5q102 0 194 49v600q-72 12 -141 12q-147 0 -232 -89t-85 -259z" />
    <glyph glyph-name="r" unicode="r" horiz-adv-x="704" 
d="M137 0v1049l238 10v-121q100 129 221 129q68 0 121 -14l-17 -234q-61 16 -118 17q-104 0 -205 -78v-758h-240z" />
    <glyph glyph-name="s" unicode="s" horiz-adv-x="876" 
d="M72 16v209q143 -35 301 -35q201 0 200 109q0 41 -29.5 67.5t-113.5 51.5l-131 39q-227 66 -227 280q0 145 118.5 237.5t321.5 92.5q143 0 256 -23l-14 -202q-129 20 -256 20q-92 0 -139.5 -27.5t-47.5 -72.5q0 -39 25.5 -63.5t97.5 -45.5l127 -32q252 -70 252 -285
q0 -162 -117.5 -255t-320.5 -93q-190 -1 -303 28z" />
    <glyph glyph-name="t" unicode="t" horiz-adv-x="724" 
d="M45 868v187h127v190l242 23v-213h266v-187h-266v-497q0 -174 157 -174q61 0 136 16v-201q-96 -25 -207 -24q-152 0 -240 88t-88 262v530h-127z" />
    <glyph glyph-name="u" unicode="u" horiz-adv-x="1122" 
d="M119 365v684l241 10v-649q0 -109 43 -157t141.5 -48t200.5 45v799l242 10v-1059h-233v70q-145 -88 -269 -88q-180 0 -273 98.5t-93 284.5z" />
    <glyph glyph-name="v" unicode="v" horiz-adv-x="989" 
d="M-4 1055h276l232 -850h16l223 850h252l-331 -1055h-332z" />
    <glyph glyph-name="w" unicode="w" horiz-adv-x="1546" 
d="M-2 1055h276l181 -850h10l209 653l-53 197h241l240 -850h10l182 850h252l-282 -1055h-334l-154 582h-8l-168 -582h-321z" />
    <glyph glyph-name="x" unicode="x" horiz-adv-x="974" 
d="M10 0l338 541l-319 514h286l185 -332h10l174 332h258l-309 -510l332 -545h-275l-209 360h-8l-205 -360h-258z" />
    <glyph glyph-name="y" unicode="y" horiz-adv-x="970" 
d="M6 1055h266l236 -813h8l207 813h244l-359 -1200q-82 -274 -385 -275q-78 0 -135 10v197q59 -8 127 -8q127 0 174 145l35 105h-88z" />
    <glyph glyph-name="z" unicode="z" horiz-adv-x="890" 
d="M55 0v184l496 670v4h-473v197h753v-187l-499 -665v-6h506v-197h-783z" />
    <glyph glyph-name="braceleft" unicode="{" horiz-adv-x="653" 
d="M33 436v150q242 33 241 172v389q0 123 70 194.5t191 71.5q63 0 98 -10v-135q-98 0 -137 -23.5t-39 -85.5v-371q0 -119 -79 -192.5t-239 -87.5v-4q164 -10 241 -67.5t77 -170.5v-383q0 -72 41 -98.5t141 -26.5v-131q-49 -14 -98 -14q-266 0 -267 215v414q1 137 -241 194z
" />
    <glyph glyph-name="bar" unicode="|" horiz-adv-x="473" 
d="M145 -371v1768h185v-1768h-185z" />
    <glyph glyph-name="braceright" unicode="}" horiz-adv-x="653" 
d="M14 1266v131q49 16 99 16q266 0 266 -217v-412q0 -139 244 -196v-150q-244 -31 -244 -172v-387q0 -125 -68.5 -195.5t-191.5 -70.5q-63 0 -99 8v135q98 0 138.5 23.5t40.5 85.5v371q0 121 78.5 193.5t238.5 88.5v2q-164 10 -240.5 67.5t-76.5 170.5v383q0 72 -42.5 98.5
t-142.5 26.5z" />
    <glyph glyph-name="asciitilde" unicode="~" 
d="M115 657q115 156 272 156q76 0 188.5 -81t165.5 -81q92 0 170 103l66 -148q-102 -150 -254 -149q-70 0 -186.5 80.5t-169.5 80.5q-98 0 -185 -108z" />
    <glyph glyph-name="uni00A0" unicode="&#xa0;" horiz-adv-x="348" 
 />
    <glyph glyph-name="exclamdown" unicode="&#xa1;" horiz-adv-x="571" 
d="M123 895q0 74 43 122t119 48q80 0 122 -44t42 -126q0 -78 -42 -126t-120 -48t-121 44t-43 130zM141 -356l23 651v326l248 6v-959z" />
    <glyph glyph-name="cent" unicode="&#xa2;" 
d="M160 684q0 211 106.5 354.5t276.5 186.5v217h178v-201q84 -2 178 -24l-22 -218q-96 18 -187 19q-127 0 -204.5 -86t-77.5 -238q0 -164 78.5 -243.5t207.5 -79.5q98 0 203 26v-207q-80 -25 -176 -30v-205h-178v215q-180 33 -281.5 161t-101.5 353z" />
    <glyph glyph-name="sterling" unicode="&#xa3;" 
d="M74 0v207h100q61 68 62 203v235h-138v193h138v176q0 186 111.5 289.5t324.5 103.5q125 0 219 -25v-215q-94 25 -232 25q-168 0 -167 -168v-186h290v-193h-290v-221q0 -137 -46 -217h293q131 0 254 45v-211q-94 -41 -266 -41h-653z" />
    <glyph glyph-name="currency" unicode="&#xa4;" 
d="M117 332l125 125q-47 74 -47 174q0 96 47 174l-125 123l131 131l123 -123q80 45 174 45q92 0 176 -45l123 123l131 -131l-127 -123q49 -82 49 -174q0 -96 -47 -176l123 -121l-129 -127l-123 119q-76 -47 -176.5 -47t-173.5 47l-123 -123zM369 629.5q0 -72.5 52 -123.5
t124.5 -51t125 51t52.5 123.5t-52.5 125t-125 52.5t-124.5 -52.5t-52 -125z" />
    <glyph glyph-name="yen" unicode="&#xa5;" 
d="M6 1397h289l268 -586h8l263 586h251l-329 -668h209v-194h-289v-148h289v-192h-289v-195h-256v195h-295v192h295v148h-295v194h211z" />
    <glyph glyph-name="brokenbar" unicode="&#xa6;" horiz-adv-x="473" 
d="M145 217h185v-588h-185v588zM145 809v588h185v-588h-185z" />
    <glyph glyph-name="section" unicode="&#xa7;" horiz-adv-x="1085" 
d="M90 -141q180 -33 354 -33q139 0 221.5 54t82.5 130q0 84 -70 133q-59 -20 -133 -20q-170 0 -285 114.5t-115 284.5q0 113 56 211q-94 94 -95 262q0 188 142.5 303t396.5 115q158 0 297 -29l-18 -213q-145 29 -291 29q-139 0 -208 -48t-69 -128q0 -74 52 -117
q66 27 145 27q172 0 286.5 -114.5t114.5 -284.5q0 -115 -59 -218q104 -96 104 -258q0 -201 -151.5 -323.5t-411.5 -122.5q-203 0 -346 25v221zM352 528q0 -88 57.5 -147t140.5 -59t139 59t56 147t-56 146.5t-139 58.5t-140.5 -59.5t-57.5 -145.5z" />
    <glyph glyph-name="dieresis" unicode="&#xa8;" horiz-adv-x="888" 
d="M145 1284q0 55 31 90t86 35q119 0 119 -125q0 -53 -31 -88t-88 -35q-117 0 -117 123zM514 1284q0 55 32 90t87 35t87 -33t32 -92q0 -53 -32 -88t-87 -35q-119 0 -119 123z" />
    <glyph glyph-name="copyright" unicode="&#xa9;" horiz-adv-x="1638" 
d="M96 696q0 297 213 509t511 212t510 -212t212 -509q0 -299 -212 -510t-510 -211t-511 211t-213 510zM223 696q0 -250 175 -427t421 -177t421 177t175 427q0 248 -175 425t-421 177t-421 -177t-175 -425zM410 668q0 219 136 336.5t345 117.5q72 0 180 -16l-12 -168
q-90 14 -174 14q-125 0 -201 -70.5t-76 -199.5q0 -127 77 -189.5t192 -62.5q96 0 194 19v-164q-102 -18 -205 -19q-209 0 -332.5 102.5t-123.5 299.5z" />
    <glyph glyph-name="ordfeminine" unicode="&#xaa;" horiz-adv-x="755" 
d="M37 893q0 221 344 221q25 0 57.5 -1t40.5 -1v21q0 102 -164 102q-88 0 -215 -45l-24 170q154 47 276 47q160 0 243 -66.5t83 -193.5v-440h-191v43q-92 -51 -208 -52q-119 0 -180.5 51.5t-61.5 143.5zM242 905q0 -66 114 -65q63 0 123 14v123q-43 4 -90 4q-147 0 -147 -76
z" />
    <glyph glyph-name="guillemotleft" unicode="&#xab;" horiz-adv-x="1210" 
d="M98 535l344 456h240l-328 -446l328 -467h-240zM524 535l344 456h240l-328 -446l328 -467h-240z" />
    <glyph glyph-name="logicalnot" unicode="&#xac;" 
d="M125 727v193h840v-545h-195v352h-645z" />
    <glyph glyph-name="uni00AD" unicode="&#xad;" horiz-adv-x="804" 
d="M127 500v223h551v-223h-551z" />
    <glyph glyph-name="registered" unicode="&#xae;" horiz-adv-x="1638" 
d="M96 696q0 297 213 509t511 212t510 -212t212 -509q0 -299 -212 -510t-510 -211t-511 211t-213 510zM223 696q0 -250 175 -427t421 -177t421 177t175 427q0 248 -175 425t-421 177t-421 -177t-175 -425zM514 274v840h281q352 0 352 -240q0 -195 -164 -256l223 -344h-223
l-176 283h-105v-283h-188zM702 705h95q154 0 153 141q0 59 -39 89t-131 30h-78v-260z" />
    <glyph glyph-name="macron" unicode="&#xaf;" horiz-adv-x="806" 
d="M137 1184v166h531v-166h-531z" />
    <glyph glyph-name="degree" unicode="&#xb0;" horiz-adv-x="782" 
d="M70 1084.5q0 136.5 95 232.5t231 96t232.5 -96t96.5 -232.5t-96.5 -231.5t-232.5 -95t-231 95t-95 231.5zM244 1084.5q0 -64.5 44 -109.5t108.5 -45t109.5 45t45 109.5t-45 109.5t-109.5 45t-108.5 -45t-44 -109.5z" />
    <glyph glyph-name="plusminus" unicode="&#xb1;" 
d="M125 0v195h840v-195h-840zM125 555v195h321v321h195v-321h324v-195h-324v-301h-195v301h-321z" />
    <glyph glyph-name="uni00B2" unicode="&#xb2;" horiz-adv-x="780" 
d="M68 700q16 78 73.5 152t132.5 119l84 49q74 43 97.5 72.5t23.5 78.5q0 53 -43 84t-119 31q-106 0 -208 -26v176q121 33 249 32q164 0 247 -72.5t83 -201.5q0 -180 -207 -291l-65 -37q-119 -66 -148 -155h445v-160h-627z" />
    <glyph glyph-name="uni00B3" unicode="&#xb3;" horiz-adv-x="780" 
d="M84 539v159h131q139 0 210 39t71 107q0 51 -39 89t-109 54q-90 -47 -182 -67l-35 129q117 27 220.5 96t156.5 147h-404v166h566l22 -180q-86 -117 -219 -178v-4q109 -25 167 -90.5t58 -153.5q0 -137 -132 -225t-349 -88h-133z" />
    <glyph glyph-name="acute" unicode="&#xb4;" horiz-adv-x="866" 
d="M375 1174l164 309h256l-238 -309h-182z" />
    <glyph glyph-name="uni00B5" unicode="&#xb5;" horiz-adv-x="1138" 
d="M137 -86v1135l240 10v-649q0 -109 44 -157t141 -48t200 45v799l242 10v-787q0 -74 53 -73q33 0 73 18v-203q-72 -27 -176 -26q-57 0 -107 29.5t-69 76.5q-109 -113 -276 -112q-72 0 -135 16v-64q0 -186 63 -342h-235q-58 136 -58 322z" />
    <glyph glyph-name="paragraph" unicode="&#xb6;" horiz-adv-x="1509" 
d="M68 811q0 274 167.5 432t462.5 158q37 0 95.5 -2t87.5 -2h475v-1929h-240v1749h-178v-1749h-174v749q-70 -23 -184 -22q-231 0 -371.5 151.5t-140.5 464.5z" />
    <glyph glyph-name="periodcentered" unicode="&#xb7;" horiz-adv-x="397" 
d="M51 631q0 70 38 115t110 45t110.5 -42t38.5 -118q0 -68 -39 -112t-108 -44q-150 0 -150 156z" />
    <glyph glyph-name="cedilla" unicode="&#xb8;" horiz-adv-x="1613" 
d="M201 -274h102q139 0 139 51q0 43 -116 55l-37 4v109l168 -13q88 -6 129 -38.5t41 -94.5q0 -90 -84 -148.5t-242 -58.5h-100v134z" />
    <glyph glyph-name="uni00B9" unicode="&#xb9;" horiz-adv-x="780" 
d="M129 1264v149q166 45 317 45h103v-907h-205v729q-119 0 -215 -16z" />
    <glyph glyph-name="ordmasculine" unicode="&#xba;" horiz-adv-x="815" 
d="M47 1032q0 168 108.5 271.5t262.5 103.5q160 0 255 -89t95 -253q0 -166 -108.5 -270.5t-264.5 -104.5q-158 0 -253 89t-95 253zM250 1036q0 -174 158 -174q70 0 114.5 53.5t44.5 143.5q0 178 -159 178q-72 0 -115 -54.5t-43 -146.5z" />
    <glyph glyph-name="guillemotright" unicode="&#xbb;" horiz-adv-x="1210" 
d="M104 78l328 446l-328 467h238l346 -456l-346 -457h-238zM530 78l328 446l-328 467h238l346 -456l-346 -457h-238z" />
    <glyph glyph-name="onequarter" unicode="&#xbc;" horiz-adv-x="1724" 
d="M129 1264v149q166 45 317 45h103v-907h-205v729q-119 0 -215 -16zM266 -227l975 1685l156 -90l-975 -1687zM874 -12q31 182 141.5 338.5t274.5 261.5h215v-576h115v-164h-115v-167h-196v167h-394zM1051 12h258v396h-2q-104 -84 -163.5 -173.5t-92.5 -222.5z" />
    <glyph glyph-name="onehalf" unicode="&#xbd;" horiz-adv-x="1724" 
d="M129 1264v149q166 45 317 45h103v-907h-205v729q-119 0 -215 -16zM266 -227l975 1685l156 -90l-975 -1687zM987 -170q14 76 71.5 150.5t133.5 119.5l84 50q74 43 97.5 72.5t23.5 78.5q0 53 -42 84t-120 31q-106 0 -209 -29v178q123 31 250 31q164 0 247 -72.5t83 -199.5
q0 -180 -207 -291l-66 -37q-119 -66 -147 -156h446v-159h-628z" />
    <glyph glyph-name="threequarters" unicode="&#xbe;" horiz-adv-x="1724" 
d="M84 539v159h131q139 0 210 39t71 107q0 51 -39 89t-109 54q-90 -47 -182 -67l-35 129q117 27 220.5 96t156.5 147h-404v166h566l22 -180q-86 -117 -219 -178v-4q109 -25 167 -90.5t58 -153.5q0 -137 -132 -225t-349 -88h-133zM266 -227l975 1685l156 -90l-975 -1687z
M874 -12q31 182 141.5 338.5t274.5 261.5h215v-576h115v-164h-115v-167h-196v167h-394zM1051 12h258v396h-2q-104 -84 -163.5 -173.5t-92.5 -222.5z" />
    <glyph glyph-name="questiondown" unicode="&#xbf;" horiz-adv-x="890" 
d="M74 -39q0 125 51 200t176 146l107 60q88 49 88 122q0 59 -35 127l196 11q70 -70 70 -164q0 -141 -160 -240l-112 -67q-68 -41 -94.5 -77t-26.5 -87q0 -55 52 -91t151 -36q143 0 297 61v-215q-172 -70 -359 -69q-180 0 -290.5 88t-110.5 231zM391 895q0 74 43 122t119 48
q80 0 122 -44t42 -126q0 -78 -42 -126t-120 -48t-121 44t-43 130z" />
    <glyph glyph-name="Agrave" unicode="&#xc0;" horiz-adv-x="1239" 
d="M12 0l416 1397h385l412 -1397h-291l-90 319h-477l-91 -319h-264zM317 1845h256l164 -309h-184zM418 524h370l-174 647h-16z" />
    <glyph glyph-name="Aacute" unicode="&#xc1;" horiz-adv-x="1239" 
d="M12 0l416 1397h385l412 -1397h-291l-90 319h-477l-91 -319h-264zM418 524h370l-174 647h-16zM508 1536l164 309h254l-236 -309h-182z" />
    <glyph glyph-name="Acircumflex" unicode="&#xc2;" horiz-adv-x="1239" 
d="M12 0l416 1397h385l412 -1397h-291l-90 319h-477l-91 -319h-264zM283 1536l235 309h219l217 -309h-213l-118 170h-19l-121 -170h-200zM418 524h370l-174 647h-16z" />
    <glyph glyph-name="Atilde" unicode="&#xc3;" horiz-adv-x="1239" 
d="M12 0l416 1397h385l412 -1397h-291l-90 319h-477l-91 -319h-264zM289 1700q86 123 207 123q59 0 148 -61.5t124 -61.5q72 0 127 74l51 -136q-76 -119 -196 -118q-53 0 -144.5 61t-128.5 61q-76 0 -137 -79zM418 524h370l-174 647h-16z" />
    <glyph glyph-name="Adieresis" unicode="&#xc4;" horiz-adv-x="1239" 
d="M12 0l416 1397h385l412 -1397h-291l-90 319h-477l-91 -319h-264zM315 1647q0 55 31 90t86 35q119 0 119 -125q0 -53 -31 -88t-88 -35q-117 0 -117 123zM418 524h370l-174 647h-16zM684 1647q0 55 32 90t87 35t87 -33t32 -92q0 -53 -32 -88t-87 -35q-119 0 -119 123z" />
    <glyph glyph-name="Aring" unicode="&#xc5;" horiz-adv-x="1239" 
d="M12 0l416 1397h385l412 -1397h-291l-90 319h-477l-91 -319h-264zM418 524h370l-174 647h-16zM428 1701q0 79 56.5 135t135 56t134 -56t55.5 -135t-55.5 -135.5t-134 -56.5t-135 56.5t-56.5 135.5zM541 1702q0 -35 22.5 -59.5t57.5 -24.5q29 0 52 24.5t23 59.5
q0 33 -23.5 56.5t-51.5 23.5q-33 0 -56.5 -23.5t-23.5 -56.5z" />
    <glyph glyph-name="AE" unicode="&#xc6;" horiz-adv-x="1744" 
d="M0 0l748 1397h884v-211h-477v-363h438v-209h-438v-403h483v-211h-739v319h-457l-163 -319h-279zM547 524h352v666h-14z" />
    <glyph glyph-name="Ccedilla" unicode="&#xc7;" horiz-adv-x="1103" 
d="M90 657q0 246 98.5 419t256 255t358.5 82q137 0 274 -29l-18 -217q-123 20 -264 21q-188 0 -312.5 -130t-124.5 -374q0 -236 123 -359.5t305 -123.5q143 0 293 26v-209q-160 -33 -311 -32q-301 0 -489.5 172.5t-188.5 498.5zM475 -268h119q145 0 145 49q0 18 -21.5 29.5
t-88.5 19.5l-62 6v115l164 -12q203 -14 203 -140q0 -90 -92 -148.5t-250 -58.5h-117v140z" />
    <glyph glyph-name="Egrave" unicode="&#xc8;" horiz-adv-x="1015" 
d="M168 0v1397h733v-211h-477v-363h438v-209h-438v-403h483v-211h-739zM236 1845h256l163 -309h-182z" />
    <glyph glyph-name="Eacute" unicode="&#xc9;" horiz-adv-x="1015" 
d="M168 0v1397h733v-211h-477v-363h438v-209h-438v-403h483v-211h-739zM426 1536l164 309h256l-238 -309h-182z" />
    <glyph glyph-name="Ecircumflex" unicode="&#xca;" horiz-adv-x="1015" 
d="M168 0v1397h733v-211h-477v-363h438v-209h-438v-403h483v-211h-739zM203 1536l233 309h219l217 -309h-213l-118 170h-17l-121 -170h-200z" />
    <glyph glyph-name="Edieresis" unicode="&#xcb;" horiz-adv-x="1015" 
d="M168 0v1397h733v-211h-477v-363h438v-209h-438v-403h483v-211h-739zM233 1647q0 55 32 90t87 35q119 0 119 -125q0 -53 -30.5 -88t-88.5 -35q-119 0 -119 123zM602 1647q0 55 33 90t88 35t87 -33t32 -92q0 -53 -32 -88t-87 -35q-121 0 -121 123z" />
    <glyph glyph-name="Igrave" unicode="&#xcc;" horiz-adv-x="591" 
d="M-4 1845h256l164 -309h-185zM168 0v1397h256v-1397h-256z" />
    <glyph glyph-name="Iacute" unicode="&#xcd;" horiz-adv-x="591" 
d="M168 0v1397h256v-1397h-256zM184 1536l166 309h254l-235 -309h-185z" />
    <glyph glyph-name="Icircumflex" unicode="&#xce;" horiz-adv-x="591" 
d="M-39 1536l236 309h219l217 -309h-213l-119 170h-18l-121 -170h-201zM168 0v1397h256v-1397h-256z" />
    <glyph glyph-name="Idieresis" unicode="&#xcf;" horiz-adv-x="591" 
d="M-6 1647q0 55 30.5 90t86.5 35q119 0 118 -125q0 -53 -30.5 -88t-87.5 -35q-117 0 -117 123zM168 0v1397h256v-1397h-256zM362 1647q0 55 32 90t87.5 35t87 -33t31.5 -92q0 -53 -31.5 -88t-87.5 -35q-119 0 -119 123z" />
    <glyph glyph-name="Eth" unicode="&#xd0;" horiz-adv-x="1392" 
d="M53 604v223h158v570h399q354 0 545 -170t191 -488q0 -371 -195 -555t-549 -184h-391v604h-158zM467 211h147q219 0 341 126t122 390q0 223 -128 341t-355 118h-127v-359h254v-223h-254v-393z" />
    <glyph glyph-name="Ntilde" unicode="&#xd1;" horiz-adv-x="1392" 
d="M168 0v1397h401l410 -1129h10v1129h236v-1397h-402l-409 1128h-8v-1128h-238zM369 1700q86 123 206 123q59 0 147.5 -61.5t125.5 -61.5q70 0 125 74l51 -136q-74 -119 -195 -118q-53 0 -145 61t-129 61q-76 0 -135 -79z" />
    <glyph glyph-name="Ograve" unicode="&#xd2;" horiz-adv-x="1486" 
d="M90 686q0 342 191.5 536.5t478.5 194.5q283 0 461 -180t178 -526q0 -342 -191.5 -535.5t-476.5 -193.5t-463 179t-178 525zM358 709q0 -254 107.5 -377t279.5 -123q160 0 272.5 118.5t112.5 360.5q0 258 -106 380t-279 122q-162 0 -274.5 -119.5t-112.5 -361.5zM442 1845
h256l164 -309h-182z" />
    <glyph glyph-name="Oacute" unicode="&#xd3;" horiz-adv-x="1486" 
d="M90 686q0 342 191.5 536.5t478.5 194.5q283 0 461 -180t178 -526q0 -342 -191.5 -535.5t-476.5 -193.5t-463 179t-178 525zM358 709q0 -254 107.5 -377t279.5 -123q160 0 272.5 118.5t112.5 360.5q0 258 -106 380t-279 122q-162 0 -274.5 -119.5t-112.5 -361.5zM633 1536
l164 309h256l-238 -309h-182z" />
    <glyph glyph-name="Ocircumflex" unicode="&#xd4;" horiz-adv-x="1486" 
d="M90 686q0 342 191.5 536.5t478.5 194.5q283 0 461 -180t178 -526q0 -342 -191.5 -535.5t-476.5 -193.5t-463 179t-178 525zM358 709q0 -254 107.5 -377t279.5 -123q160 0 272.5 118.5t112.5 360.5q0 258 -106 380t-279 122q-162 0 -274.5 -119.5t-112.5 -361.5zM410 1536
l233 309h219l217 -309h-213l-118 170h-17l-123 -170h-198z" />
    <glyph glyph-name="Otilde" unicode="&#xd5;" horiz-adv-x="1486" 
d="M90 686q0 342 191.5 536.5t478.5 194.5q283 0 461 -180t178 -526q0 -342 -191.5 -535.5t-476.5 -193.5t-463 179t-178 525zM358 709q0 -254 107.5 -377t279.5 -123q160 0 272.5 118.5t112.5 360.5q0 258 -106 380t-279 122q-162 0 -274.5 -119.5t-112.5 -361.5zM416 1700
q84 123 207 123q59 0 147 -61.5t125 -61.5q70 0 125 74l51 -136q-74 -119 -197 -118q-53 0 -144 61t-128 61q-76 0 -135 -79z" />
    <glyph glyph-name="Odieresis" unicode="&#xd6;" horiz-adv-x="1486" 
d="M90 686q0 342 191.5 536.5t478.5 194.5q283 0 461 -180t178 -526q0 -342 -191.5 -535.5t-476.5 -193.5t-463 179t-178 525zM358 709q0 -254 107.5 -377t279.5 -123q160 0 272.5 118.5t112.5 360.5q0 258 -106 380t-279 122q-162 0 -274.5 -119.5t-112.5 -361.5zM440 1647
q0 55 31 90t86 35q121 0 121 -125q0 -53 -31 -88t-90 -35q-117 0 -117 123zM809 1647q0 55 31.5 90t87 35t88.5 -33t33 -92q0 -53 -33 -88t-88 -35q-119 0 -119 123z" />
    <glyph glyph-name="multiply" unicode="&#xd7;" 
d="M158 381l250 250l-250 250l139 135l246 -250l252 252l135 -137l-248 -250l248 -250l-135 -137l-252 250l-246 -248z" />
    <glyph glyph-name="Oslash" unicode="&#xd8;" horiz-adv-x="1486" 
d="M90 686q0 342 191.5 536.5t478.5 194.5q154 0 287 -61l73 129l117 -66l-74 -131q236 -186 236 -577q0 -342 -191.5 -535.5t-476.5 -193.5q-160 0 -291 57l-71 -127l-117 68l74 129q-236 186 -236 577zM354 709q0 -244 101 -379l473 823q-78 41 -183 41
q-162 0 -276.5 -121.5t-114.5 -363.5zM561 246q80 -41 184 -41q160 0 275 120.5t115 362.5q0 246 -101 379z" />
    <glyph glyph-name="Ugrave" unicode="&#xd9;" horiz-adv-x="1357" 
d="M154 483v914h256v-883q0 -303 278 -303q131 0 203 77t72 222v887h243v-895q0 -236 -144 -377t-388 -141q-520 -1 -520 499zM379 1845h256l164 -309h-183z" />
    <glyph glyph-name="Uacute" unicode="&#xda;" horiz-adv-x="1357" 
d="M154 483v914h256v-883q0 -303 278 -303q131 0 203 77t72 222v887h243v-895q0 -236 -144 -377t-388 -141q-520 -1 -520 499zM569 1536l164 309h256l-237 -309h-183z" />
    <glyph glyph-name="Ucircumflex" unicode="&#xdb;" horiz-adv-x="1357" 
d="M154 483v914h256v-883q0 -303 278 -303q131 0 203 77t72 222v887h243v-895q0 -236 -144 -377t-388 -141q-520 -1 -520 499zM344 1536l236 309h219l217 -309h-213l-119 170h-16l-123 -170h-201z" />
    <glyph glyph-name="Udieresis" unicode="&#xdc;" horiz-adv-x="1357" 
d="M154 483v914h256v-883q0 -303 278 -303q131 0 203 77t72 222v887h243v-895q0 -236 -144 -377t-388 -141q-520 -1 -520 499zM377 1647q0 55 30.5 90t86.5 35q121 0 120 -125q0 -53 -31.5 -88t-88.5 -35q-117 0 -117 123zM745 1647q0 55 32 90t87.5 35t87 -33t31.5 -92
q0 -53 -31.5 -88t-87.5 -35q-119 0 -119 123z" />
    <glyph glyph-name="Yacute" unicode="&#xdd;" horiz-adv-x="1140" 
d="M6 1397h289l293 -586h8l287 586h252l-435 -834v-563h-256v563zM461 1536l164 309h256l-238 -309h-182z" />
    <glyph glyph-name="Thorn" unicode="&#xde;" horiz-adv-x="1142" 
d="M168 0v1397h256v-221h182q231 0 359.5 -116t128.5 -312q0 -221 -141.5 -350.5t-374.5 -129.5q-86 0 -154 8v-276h-256zM424 481q57 -8 121 -8q133 0 207.5 66.5t74.5 189.5q0 242 -258 242h-145v-490z" />
    <glyph glyph-name="germandbls" unicode="&#xdf;" horiz-adv-x="1282" 
d="M172 0v1122q0 170 109.5 270.5t324.5 100.5t334 -87t119 -245q0 -61 -24.5 -113.5t-58.5 -86t-70 -63.5t-60.5 -60.5t-24.5 -61.5q0 -55 88 -102l99 -53q117 -66 166 -129.5t49 -151.5q0 -158 -115 -255t-285 -97q-160 0 -272 28v209q143 -35 270 -35q170 0 170 105
q0 63 -100 119l-107 59q-109 61 -148.5 116.5t-39.5 145.5q0 70 38 130.5t81 97t81 86t38 98.5q0 154 -232 153q-92 0 -140 -44t-48 -121v-1135h-242z" />
    <glyph glyph-name="agrave" unicode="&#xe0;" horiz-adv-x="1034" 
d="M57 281q0 152 121 240.5t359 88.5q29 0 75.5 -1t69.5 -1v62q0 178 -236 178q-145 0 -299 -64l-34 203q190 80 379 80q211 0 317 -96.5t106 -274.5v-696h-225v68q-127 -80 -299 -80q-160 0 -247 80t-87 213zM201 1483h256l164 -309h-185zM305 301q0 -55 41 -89t117 -34
q115 0 219 55v199q-82 4 -139 4q-238 0 -238 -135z" />
    <glyph glyph-name="aacute" unicode="&#xe1;" horiz-adv-x="1034" 
d="M57 281q0 152 121 240.5t359 88.5q29 0 75.5 -1t69.5 -1v62q0 178 -236 178q-145 0 -299 -64l-34 203q190 80 379 80q211 0 317 -96.5t106 -274.5v-696h-225v68q-127 -80 -299 -80q-160 0 -247 80t-87 213zM305 301q0 -55 41 -89t117 -34q115 0 219 55v199q-82 4 -139 4
q-238 0 -238 -135zM389 1174l164 309h256l-236 -309h-184z" />
    <glyph glyph-name="acircumflex" unicode="&#xe2;" horiz-adv-x="1034" 
d="M57 281q0 152 121 240.5t359 88.5q29 0 75.5 -1t69.5 -1v62q0 178 -236 178q-145 0 -299 -64l-34 203q190 80 379 80q211 0 317 -96.5t106 -274.5v-696h-225v68q-127 -80 -299 -80q-160 0 -247 80t-87 213zM166 1174l235 309h220l217 -309h-213l-121 169h-17l-120 -169
h-201zM305 301q0 -55 41 -89t117 -34q115 0 219 55v199q-82 4 -139 4q-238 0 -238 -135z" />
    <glyph glyph-name="atilde" unicode="&#xe3;" horiz-adv-x="1034" 
d="M57 281q0 152 121 240.5t359 88.5q29 0 75.5 -1t69.5 -1v62q0 178 -236 178q-145 0 -299 -64l-34 203q190 80 379 80q211 0 317 -96.5t106 -274.5v-696h-225v68q-127 -80 -299 -80q-160 0 -247 80t-87 213zM172 1337q86 123 207 123q59 0 148 -61.5t124 -61.5
q72 0 127 76l51 -137q-76 -119 -196 -119q-53 0 -145.5 61.5t-127.5 61.5q-78 0 -137 -78zM305 301q0 -55 41 -89t117 -34q115 0 219 55v199q-82 4 -139 4q-238 0 -238 -135z" />
    <glyph glyph-name="adieresis" unicode="&#xe4;" horiz-adv-x="1034" 
d="M57 281q0 152 121 240.5t359 88.5q29 0 75.5 -1t69.5 -1v62q0 178 -236 178q-145 0 -299 -64l-34 203q190 80 379 80q211 0 317 -96.5t106 -274.5v-696h-225v68q-127 -80 -299 -80q-160 0 -247 80t-87 213zM199 1284q0 55 30.5 90t85.5 35q119 0 119 -125
q0 -53 -30.5 -88t-88.5 -35q-116 0 -116 123zM305 301q0 -55 41 -89t117 -34q115 0 219 55v199q-82 4 -139 4q-238 0 -238 -135zM567 1284q0 55 32 90t87 35t87 -33t32 -92q0 -53 -32 -88t-87 -35q-119 0 -119 123z" />
    <glyph glyph-name="aring" unicode="&#xe5;" horiz-adv-x="1034" 
d="M57 281q0 152 121 240.5t359 88.5q29 0 75.5 -1t69.5 -1v62q0 178 -236 178q-145 0 -299 -64l-34 203q190 80 379 80q211 0 317 -96.5t106 -274.5v-696h-225v68q-127 -80 -299 -80q-160 0 -247 80t-87 213zM305 301q0 -55 41 -89t117 -34q115 0 219 55v199q-82 4 -139 4
q-238 0 -238 -135zM311 1340.5q0 78.5 56.5 134t134.5 55.5q82 0 136 -55.5t54 -134t-55 -135t-134 -56.5t-135.5 56.5t-56.5 135zM424 1339q0 -33 22.5 -57.5t55.5 -24.5q31 0 54.5 25t23.5 57q0 33 -24 57.5t-54 24.5q-31 0 -54.5 -24.5t-23.5 -57.5z" />
    <glyph glyph-name="ae" unicode="&#xe6;" horiz-adv-x="1636" 
d="M57 276q0 156 121 245t359 89q29 0 75.5 -1t69.5 -1v56q0 184 -236 184q-145 0 -299 -64l-34 203q190 80 379 80q231 0 337 -117q129 123 322 123q195 0 305.5 -112.5t110.5 -317.5q0 -109 -6 -178h-652q37 -272 324 -272q152 0 307 51v-201q-170 -55 -336 -55
q-283 0 -407 153q-172 -154 -406 -153q-160 0 -247 77.5t-87 210.5zM305 297q0 -53 41 -86t117 -33q137 0 260 78q-29 61 -43 176q-82 4 -137 4q-238 0 -238 -139zM913 641h420q0 109 -54 174.5t-146 65.5q-86 0 -146 -62.5t-74 -177.5z" />
    <glyph glyph-name="ccedilla" unicode="&#xe7;" horiz-adv-x="851" 
d="M74 512q0 254 150.5 405.5t367.5 151.5q121 0 221 -25l-20 -217q-98 18 -189 19q-127 0 -204.5 -86t-77.5 -238q0 -164 78.5 -243.5t207.5 -79.5q98 0 203 26v-209q-98 -29 -225 -28q-238 0 -375 131t-137 393zM285 -274h102q141 0 141 51q0 43 -116 55l-37 4v109
l166 -13q90 -6 130 -38.5t40 -94.5q0 -90 -84 -148.5t-242 -58.5h-100v134z" />
    <glyph glyph-name="egrave" unicode="&#xe8;" horiz-adv-x="1036" 
d="M74 524q0 260 134 404.5t341 144.5q197 0 307.5 -112.5t110.5 -317.5q0 -109 -6 -178h-652q35 -272 324 -272q152 0 307 51v-201q-172 -55 -338 -55q-248 0 -388 134t-140 402zM252 1483h256l164 -309h-185zM313 641h420q0 109 -54 174.5t-147 65.5q-88 0 -146.5 -62.5
t-72.5 -177.5z" />
    <glyph glyph-name="eacute" unicode="&#xe9;" horiz-adv-x="1036" 
d="M74 524q0 260 134 404.5t341 144.5q197 0 307.5 -112.5t110.5 -317.5q0 -109 -6 -178h-652q35 -272 324 -272q152 0 307 51v-201q-172 -55 -338 -55q-248 0 -388 134t-140 402zM313 641h420q0 109 -54 174.5t-147 65.5q-88 0 -146.5 -62.5t-72.5 -177.5zM440 1174
l164 309h256l-235 -309h-185z" />
    <glyph glyph-name="ecircumflex" unicode="&#xea;" horiz-adv-x="1036" 
d="M74 524q0 260 134 404.5t341 144.5q197 0 307.5 -112.5t110.5 -317.5q0 -109 -6 -178h-652q35 -272 324 -272q152 0 307 51v-201q-172 -55 -338 -55q-248 0 -388 134t-140 402zM217 1174l234 309h221l217 -309h-213l-121 169h-16l-121 -169h-201zM313 641h420
q0 109 -54 174.5t-147 65.5q-88 0 -146.5 -62.5t-72.5 -177.5z" />
    <glyph glyph-name="edieresis" unicode="&#xeb;" horiz-adv-x="1036" 
d="M74 524q0 260 134 404.5t341 144.5q197 0 307.5 -112.5t110.5 -317.5q0 -109 -6 -178h-652q35 -272 324 -272q152 0 307 51v-201q-172 -55 -338 -55q-248 0 -388 134t-140 402zM250 1284q0 55 30.5 90t86.5 35q119 0 118 -125q0 -53 -30.5 -88t-87.5 -35q-117 0 -117 123
zM313 641h420q0 109 -54 174.5t-147 65.5q-88 0 -146.5 -62.5t-72.5 -177.5zM618 1284q0 55 32 90t87.5 35t87 -33t31.5 -92q0 -53 -31.5 -88t-87.5 -35q-119 0 -119 123z" />
    <glyph glyph-name="igrave" unicode="&#xec;" horiz-adv-x="512" 
d="M-45 1483h256l164 -309h-182zM137 0v1049l240 10v-1059h-240z" />
    <glyph glyph-name="iacute" unicode="&#xed;" horiz-adv-x="512" 
d="M137 0v1049l240 10v-1059h-240zM145 1174l164 309h256l-237 -309h-183z" />
    <glyph glyph-name="icircumflex" unicode="&#xee;" horiz-adv-x="512" 
d="M-78 1174l234 309h219l217 -309h-213l-119 169h-16l-123 -169h-199zM137 0v1049l240 10v-1059h-240z" />
    <glyph glyph-name="idieresis" unicode="&#xef;" horiz-adv-x="512" 
d="M-47 1284q0 55 30.5 90t86.5 35q121 0 120 -125q0 -53 -31.5 -88t-88.5 -35q-117 0 -117 123zM137 0v1049l240 10v-1059h-240zM322 1284q0 55 31.5 90t87 35t88 -33t32.5 -92q0 -53 -32.5 -88t-88.5 -35q-118 0 -118 123z" />
    <glyph glyph-name="eth" unicode="&#xf0;" horiz-adv-x="1126" 
d="M74 507q0 255 146.5 410.5t359.5 155.5q119 0 200 -59l11 6q-29 123 -119 203l-90 -95l-99 97l58 61q-45 16 -109 17q-123 0 -254 -25v188q139 27 291 27q127 0 221 -39l103 107l104 -107l-76 -78q221 -186 221 -698q0 -350 -134 -523t-357 -173q-215 0 -346 135
t-131 390zM322 516q0 -162 68.5 -241.5t178.5 -79.5q102 0 174 93t72 248.5t-14 270.5q-102 59 -234 59q-104 0 -174.5 -96t-70.5 -254z" />
    <glyph glyph-name="ntilde" unicode="&#xf1;" horiz-adv-x="1134" 
d="M137 0v1049l234 10v-78q137 86 278 86q174 0 270.5 -97.5t96.5 -275.5v-694h-240v645q0 199 -194 199q-106 0 -205 -41v-803h-240zM248 1337q84 123 207 123q59 0 147 -61.5t125 -61.5q70 0 125 76l51 -137q-74 -119 -196 -119q-53 0 -144.5 61.5t-128.5 61.5
q-76 0 -135 -78z" />
    <glyph glyph-name="ograve" unicode="&#xf2;" horiz-adv-x="1165" 
d="M74 507q0 253 153.5 409.5t370.5 156.5q223 0 359.5 -136t136.5 -392q0 -254 -154 -408.5t-371 -154.5q-225 0 -360 136t-135 389zM283 1483h256l163 -309h-182zM322 516q0 -160 69.5 -240.5t192.5 -80.5q115 0 188.5 91t73.5 253q0 158 -70.5 239.5t-191.5 81.5
q-115 0 -188.5 -91t-73.5 -253z" />
    <glyph glyph-name="oacute" unicode="&#xf3;" horiz-adv-x="1165" 
d="M74 507q0 253 153.5 409.5t370.5 156.5q223 0 359.5 -136t136.5 -392q0 -254 -154 -408.5t-371 -154.5q-225 0 -360 136t-135 389zM322 516q0 -160 69.5 -240.5t192.5 -80.5q115 0 188.5 91t73.5 253q0 158 -70.5 239.5t-191.5 81.5q-115 0 -188.5 -91t-73.5 -253z
M473 1174l164 309h256l-238 -309h-182z" />
    <glyph glyph-name="ocircumflex" unicode="&#xf4;" horiz-adv-x="1165" 
d="M74 507q0 253 153.5 409.5t370.5 156.5q223 0 359.5 -136t136.5 -392q0 -254 -154 -408.5t-371 -154.5q-225 0 -360 136t-135 389zM250 1174l233 309h219l218 -309h-213l-119 169h-17l-122 -169h-199zM322 516q0 -160 69.5 -240.5t192.5 -80.5q115 0 188.5 91t73.5 253
q0 158 -70.5 239.5t-191.5 81.5q-115 0 -188.5 -91t-73.5 -253z" />
    <glyph glyph-name="otilde" unicode="&#xf5;" horiz-adv-x="1165" 
d="M74 507q0 253 153.5 409.5t370.5 156.5q223 0 359.5 -136t136.5 -392q0 -254 -154 -408.5t-371 -154.5q-225 0 -360 136t-135 389zM256 1337q84 123 207 123q59 0 147 -61.5t125 -61.5q70 0 125 76l51 -137q-74 -119 -196 -119q-53 0 -144.5 61.5t-128.5 61.5
q-76 0 -135 -78zM322 516q0 -160 69.5 -240.5t192.5 -80.5q115 0 188.5 91t73.5 253q0 158 -70.5 239.5t-191.5 81.5q-115 0 -188.5 -91t-73.5 -253z" />
    <glyph glyph-name="odieresis" unicode="&#xf6;" horiz-adv-x="1165" 
d="M74 507q0 253 153.5 409.5t370.5 156.5q223 0 359.5 -136t136.5 -392q0 -254 -154 -408.5t-371 -154.5q-225 0 -360 136t-135 389zM281 1284q0 55 30.5 90t85.5 35q121 0 121 -125q0 -53 -30.5 -88t-90.5 -35q-116 0 -116 123zM322 516q0 -160 69.5 -240.5t192.5 -80.5
q115 0 188.5 91t73.5 253q0 158 -70.5 239.5t-191.5 81.5q-115 0 -188.5 -91t-73.5 -253zM649 1284q0 55 32 90t87 35t88 -33t33 -92q0 -53 -33 -88t-88 -35q-119 0 -119 123z" />
    <glyph glyph-name="divide" unicode="&#xf7;" 
d="M125 535v194h840v-194h-840zM432 303q0 55 30 84t83 29t82.5 -29t29.5 -84t-29.5 -84t-82.5 -29t-83 29t-30 84zM432 960.5q0 55.5 30 84t83 28.5t82.5 -28.5t29.5 -84t-29.5 -84t-82.5 -28.5t-83 28.5t-30 84z" />
    <glyph glyph-name="oslash" unicode="&#xf8;" horiz-adv-x="1165" 
d="M74 508q0 252 153.5 408.5t370.5 156.5q117 0 209 -39l70 123l104 -61l-68 -121q180 -137 181 -430q0 -254 -154 -408.5t-371 -154.5q-113 0 -209 34l-69 -116l-103 61l66 115q-180 135 -180 432zM317 516q0 -143 58 -237l325 565q-49 23 -116 22q-115 0 -191 -94
t-76 -256zM467 209q53 -20 117 -21q115 0 190.5 94.5t75.5 256.5q0 139 -59 231z" />
    <glyph glyph-name="ugrave" unicode="&#xf9;" horiz-adv-x="1122" 
d="M119 365v684l241 10v-649q0 -109 43 -157t141.5 -48t200.5 45v799l242 10v-1059h-233v70q-145 -88 -269 -88q-180 0 -273 98.5t-93 284.5zM252 1483h256l164 -309h-185z" />
    <glyph glyph-name="uacute" unicode="&#xfa;" horiz-adv-x="1122" 
d="M119 365v684l241 10v-649q0 -109 43 -157t141.5 -48t200.5 45v799l242 10v-1059h-233v70q-145 -88 -269 -88q-180 0 -273 98.5t-93 284.5zM440 1174l164 309h256l-235 -309h-185z" />
    <glyph glyph-name="ucircumflex" unicode="&#xfb;" horiz-adv-x="1122" 
d="M119 365v684l241 10v-649q0 -109 43 -157t141.5 -48t200.5 45v799l242 10v-1059h-233v70q-145 -88 -269 -88q-180 0 -273 98.5t-93 284.5zM217 1174l234 309h221l217 -309h-213l-121 169h-16l-121 -169h-201z" />
    <glyph glyph-name="udieresis" unicode="&#xfc;" horiz-adv-x="1122" 
d="M119 365v684l241 10v-649q0 -109 43 -157t141.5 -48t200.5 45v799l242 10v-1059h-233v70q-145 -88 -269 -88q-180 0 -273 98.5t-93 284.5zM250 1284q0 55 30.5 90t86.5 35q119 0 118 -125q0 -53 -30.5 -88t-87.5 -35q-117 0 -117 123zM618 1284q0 55 32 90t87.5 35
t87 -33t31.5 -92q0 -53 -31.5 -88t-87.5 -35q-119 0 -119 123z" />
    <glyph glyph-name="yacute" unicode="&#xfd;" horiz-adv-x="970" 
d="M6 1055h266l236 -813h8l207 813h244l-359 -1200q-82 -274 -385 -275q-78 0 -135 10v197q59 -8 127 -8q127 0 174 145l35 105h-88zM375 1174l164 309h256l-238 -309h-182z" />
    <glyph glyph-name="thorn" unicode="&#xfe;" horiz-adv-x="1150" 
d="M137 -408v1885l240 12v-502q121 80 266 80q203 0 318.5 -128t115.5 -376q0 -274 -155.5 -424.5t-413.5 -150.5q-68 0 -131 12v-408h-240zM377 205q66 -10 131 -10q150 0 236.5 87t86.5 261q0 152 -68.5 226.5t-191.5 74.5q-96 0 -194 -41v-598z" />
    <glyph glyph-name="ydieresis" unicode="&#xff;" horiz-adv-x="970" 
d="M6 1055h266l236 -813h8l207 813h244l-359 -1200q-82 -274 -385 -275q-78 0 -135 10v197q59 -8 127 -8q127 0 174 145l35 105h-88zM182 1284q0 55 32 90t87 35q119 0 119 -125q0 -53 -31 -88t-88 -35q-119 0 -119 123zM551 1284q0 55 32.5 90t88 35t87.5 -33t32 -92
q0 -53 -32 -88t-87 -35q-121 0 -121 123z" />
    <glyph glyph-name="OE" unicode="&#x152;" horiz-adv-x="1908" 
d="M90 686q0 342 191.5 536.5t478.5 194.5q180 0 303 -82v62h733v-211h-477v-363h438v-209h-438v-403h483v-211h-739v82q-133 -100 -332 -100q-285 0 -463 179t-178 525zM358 709q0 -254 107.5 -377t279.5 -123q203 0 318 160v663q-109 158 -318 158q-162 0 -274.5 -119.5
t-112.5 -361.5z" />
    <glyph glyph-name="oe" unicode="&#x153;" horiz-adv-x="1810" 
d="M74 507q0 253 153.5 409.5t370.5 156.5q246 0 373 -158q133 158 352 158q197 0 307.5 -112.5t110.5 -317.5q0 -109 -6 -178h-654q37 -272 324 -272q150 0 307 51v-201q-170 -55 -336 -55q-287 0 -422 170q-147 -176 -385 -176q-225 0 -360 136t-135 389zM322 516
q0 -160 69.5 -240.5t192.5 -80.5q115 0 188.5 91t73.5 253q0 158 -70.5 239.5t-191.5 81.5q-115 0 -188.5 -91t-73.5 -253zM1085 641h420q0 109 -54 174.5t-144 65.5q-88 0 -147 -62.5t-75 -177.5z" />
    <glyph glyph-name="Ydieresis" unicode="&#x178;" horiz-adv-x="1140" 
d="M6 1397h289l293 -586h8l287 586h252l-435 -834v-563h-256v563zM268 1647q0 55 31 90t86 35q119 0 119 -125q0 -53 -31 -88t-88 -35q-117 0 -117 123zM637 1647q0 55 31.5 90t87 35t87 -33t31.5 -92q0 -53 -31.5 -88t-86.5 -35q-119 0 -119 123z" />
    <glyph glyph-name="circumflex" unicode="&#x2c6;" horiz-adv-x="757" 
d="M41 1174l233 309h220l217 -309h-213l-119 169h-17l-120 -169h-201z" />
    <glyph glyph-name="tilde" unicode="&#x2dc;" horiz-adv-x="804" 
d="M61 1337q86 123 207 123q59 0 147.5 -61.5t125.5 -61.5q70 0 127 76l49 -137q-74 -119 -195 -119q-53 0 -145 61.5t-127 61.5q-78 0 -137 -78z" />
    <glyph glyph-name="endash" unicode="&#x2013;" horiz-adv-x="1064" 
d="M61 512v199h943v-199h-943z" />
    <glyph glyph-name="emdash" unicode="&#x2014;" horiz-adv-x="2129" 
d="M61 512v199h2007v-199h-2007z" />
    <glyph glyph-name="quoteleft" unicode="&#x2018;" horiz-adv-x="473" 
d="M74 1085q0 61 52 157.5t113.5 167.5t86.5 71h112l-116 -269q80 -41 79 -137q0 -70 -45 -117t-118 -47q-74 0 -119 44t-45 130z" />
    <glyph glyph-name="quoteright" unicode="&#x2019;" horiz-adv-x="473" 
d="M37 911l117 269q-80 39 -80 137q0 70 45 117t117 47q76 0 120.5 -44t44.5 -130q0 -61 -52 -157.5t-113.5 -167.5t-85.5 -71h-113z" />
    <glyph glyph-name="quotesinglbase" unicode="&#x201a;" horiz-adv-x="473" 
d="M37 -233l117 268q-80 37 -80 135q0 72 45 118t117 46q76 0 120.5 -43t44.5 -131q0 -59 -52 -156.5t-113.5 -167t-85.5 -69.5h-113z" />
    <glyph glyph-name="quotedblleft" unicode="&#x201c;" horiz-adv-x="892" 
d="M74 1085q0 61 52 157.5t113.5 167.5t86.5 71h112l-116 -269q80 -41 79 -137q0 -70 -45 -117t-118 -47q-74 0 -119 44t-45 130zM494 1085q0 61 52 157.5t113.5 167.5t85.5 71h113l-117 -269q78 -41 78 -137q0 -70 -44 -117t-118 -47t-118.5 44t-44.5 130z" />
    <glyph glyph-name="quotedblright" unicode="&#x201d;" horiz-adv-x="892" 
d="M37 918l117 268q-80 41 -80 137q0 70 45 117t117 47q76 0 120.5 -44t44.5 -130q0 -59 -52 -156.5t-113.5 -168t-85.5 -70.5h-113zM457 918l116 268q-80 41 -79 137q0 70 45 117t116 47q76 0 120 -44t44 -130q0 -59 -52 -156.5t-112.5 -168t-85.5 -70.5h-112z" />
    <glyph glyph-name="quotedblbase" unicode="&#x201e;" horiz-adv-x="892" 
d="M37 -233l117 268q-80 37 -80 135q0 72 45 118t117 46q76 0 120.5 -43t44.5 -131q0 -59 -52 -156.5t-113.5 -167t-85.5 -69.5h-113zM457 -233l116 268q-80 37 -79 135q0 72 45 118t116 46q76 0 120 -43t44 -131q0 -59 -52 -156.5t-112.5 -167t-85.5 -69.5h-112z" />
    <glyph glyph-name="bullet" unicode="&#x2022;" horiz-adv-x="565" 
d="M43 629q0 115 62.5 184.5t177.5 69.5q113 0 177 -65.5t64 -188.5q0 -109 -65.5 -178.5t-175.5 -69.5q-115 0 -177.5 65.5t-62.5 182.5z" />
    <glyph glyph-name="ellipsis" unicode="&#x2026;" horiz-adv-x="1423" 
d="M74 160q0 76 43 125t119 49q80 0 122.5 -44t42.5 -130q0 -74 -43 -122t-120 -48q-78 0 -121 43t-43 127zM549 160q0 76 43 125t119 49q80 0 121.5 -44t41.5 -130q0 -74 -41.5 -122t-119.5 -48t-121 43t-43 127zM1024 160q0 76 43 125t119 49q80 0 122 -44t42 -130
q0 -74 -42 -122t-120 -48t-121 43t-43 127z" />
    <glyph glyph-name="guilsinglleft" unicode="&#x2039;" horiz-adv-x="784" 
d="M98 535l344 456h240l-328 -446l328 -467h-240z" />
    <glyph glyph-name="guilsinglright" unicode="&#x203a;" horiz-adv-x="784" 
d="M104 78l328 446l-328 467h238l346 -456l-346 -457h-238z" />
    <glyph glyph-name="Euro" unicode="&#x20ac;" 
d="M39 442v162h127v45q0 80 4 115h-131v164h158q57 238 210.5 359.5t378.5 121.5q119 0 238 -25v-223q-152 27 -244 27q-246 0 -315 -260h387v-164h-416q-2 -29 -2 -88q0 -49 2 -72h416v-162h-389q70 -246 303 -245q119 0 268 30v-211q-143 -33 -284 -32q-227 0 -375 113.5
t-193 344.5h-143z" />
    <glyph glyph-name="trademark" unicode="&#x2122;" horiz-adv-x="1830" 
d="M94 1239v158h584v-158h-201v-600h-182v600h-201zM799 639l28 758h252l166 -449h4l178 449h224l28 -758h-170l-18 532h-4l-162 -428h-174l-162 428h-8l-14 -532h-168z" />
    <glyph glyph-name="uniE000" unicode="&#xe000;" horiz-adv-x="1055" 
d="M0 1055h1055v-1055h-1055v1055z" />
    <glyph glyph-name="uniFB01" unicode="&#xfb01;" horiz-adv-x="1185" 
d="M39 868v187h133v75q0 188 109.5 275.5t367.5 87.5q217 0 416 -16l-14 -189q-231 12 -404 12q-133 0 -183 -36.5t-50 -128.5v-80h395l242 4v-1059h-242v868h-395v-868h-242v868h-133z" />
    <glyph glyph-name="uniFB02" unicode="&#xfb02;" horiz-adv-x="1185" 
d="M39 868v187h133v75q0 182 103.5 272.5t330.5 90.5q94 0 203 -16l242 12v-1489h-242v1288q-94 12 -199 12q-109 0 -152.5 -37.5t-43.5 -127.5v-80h235v-187h-235v-868h-242v868h-133z" />
    <glyph glyph-name="uniFB03" unicode="&#xfb03;" horiz-adv-x="1857" 
d="M39 868v187h133v75q0 362 414 363q86 0 151 -16l-20 -189q-70 12 -127 12q-92 0 -134 -39.5t-42 -125.5v-80h432v75q0 188 109.5 275.5t367.5 87.5q217 0 416 -16l-17 -189q-229 12 -401 12q-135 0 -185.5 -36.5t-50.5 -128.5v-80h398l239 4v-1059h-239v868h-398v-868
h-239v868h-432v-868h-242v868h-133z" />
    <glyph glyph-name="uniFB04" unicode="&#xfb04;" horiz-adv-x="1857" 
d="M39 868v187h133v75q0 362 414 363q86 0 151 -16l-20 -189q-70 12 -127 12q-92 0 -134 -39.5t-42 -125.5v-80h432v75q0 182 103.5 272.5t330.5 90.5q94 0 203 -16l239 12v-1489h-239v1288q-94 12 -199 12q-109 0 -154 -37.5t-45 -127.5v-80h238v-187h-238v-868h-239v868
h-432v-868h-242v868h-133z" />
    <glyph glyph-name="CR" horiz-adv-x="348" 
 />
    </font>
</defs>
</svg>
